<svg width="22" height="22" viewBox="0 0 22 22" fill="none" xmlns="http://www.w3.org/2000/svg">
<path d="M11.2452 0C11.6035 0 11.9602 0.066 12.2902 0.193286L20.3563 3.29214C21.3526 3.674 22 4.56186 22 5.54557V19.5533C22 20.9047 20.7963 22 19.3113 22H11.2452L11.0959 21.9969C11.3712 21.981 11.6326 21.8708 11.8361 21.6848C12.0396 21.4987 12.1728 21.2482 12.2132 20.9754L12.2226 20.834V3.61114C12.2227 3.53406 12.2148 3.45717 12.199 3.38171C12.0749 2.79557 11.5123 2.40114 10.901 2.44829L10.7596 2.46714L8.55489 2.88671V2.44671C8.55489 1.09529 9.76017 0 11.2452 0ZM10.9686 5.863C10.9888 5.9517 10.9993 6.04232 11 6.13329V20.7554C11.0015 20.9174 10.971 21.0781 10.9103 21.2283C10.8497 21.3786 10.76 21.5154 10.6465 21.6309C10.533 21.7465 10.3978 21.8386 10.2487 21.9019C10.0996 21.9652 9.93945 21.9986 9.77746 22H1.22262C1.06062 21.9986 0.900495 21.9652 0.751381 21.9019C0.602268 21.8386 0.467088 21.7465 0.353561 21.6309C0.240034 21.5154 0.150382 21.3786 0.0897266 21.2283C0.0290709 21.0781 -0.00140151 20.9174 4.94838e-05 20.7554V8.06929C4.94838e-05 7.48471 0.39762 6.98029 0.958619 6.85457L9.51031 4.91857C9.66813 4.88401 9.83123 4.88108 9.99018 4.90993C10.1491 4.93879 10.3008 4.99886 10.4364 5.08668C10.572 5.1745 10.6889 5.28832 10.7802 5.42157C10.8715 5.55482 10.9356 5.70485 10.9686 5.863ZM6.28575 12.5714H4.71432C4.32943 12.5715 3.95794 12.7128 3.67031 12.9686C3.38269 13.2243 3.19893 13.5767 3.1539 13.959L3.1429 14.1429V18.8571H7.85717V14.1429C7.85717 13.7261 7.69161 13.3264 7.39691 13.0317C7.10222 12.737 6.70252 12.5714 6.28575 12.5714Z" fill="#66CBFF"/>
</svg>
